<?xml version="1.0" encoding="UTF-8"?>
<svg id="_3_portes" data-name="3 portes" xmlns="http://www.w3.org/2000/svg" viewBox="0 0 634.81 311.98">
  <defs>
    <style>
      .cls-1 {
        fill: #174191;
      }

      .cls-2 {
        fill: #ececec;
      }
    </style>
  </defs>
  <rect class="cls-2" y="-4.89" width="634.81" height="316.87"/>
  <g>
    <path class="cls-1" d="m30.24,231.04c.01.09.09.27-.05.31-.31-.17-.42-.56-.57-.86-.66-1.75-.84-3.63-.95-5.48-.15-1.45.55-2.82,1.41-3.95,0,0,0,.28,0,.28-5.46-5.43-9.16-14.68-9.36-21.34-3.97-7.82-7.77-21.49,5.03-22.55,0,0-.99,1.06-.99,1.06-.22-3.97-.49-7.93-.31-11.93.03-.64.09-1.45.44-2.09.93-1.42,3.15-.32,4.26-.21,1.1.19,2,.21,2.66-.61,3.71-4.25,7.06-8.83,10.51-13.29,0,0,5.68-7.52,5.68-7.52.37-.49,1.02-1.34,1.34-1.81.55-.76-.04-1.93-.94-1.98-3.74-.24-7.53-.47-11.22-.42-2.62.2-4.96,1.15-7.47,1.87-1.04.33-2.15-.24-2.49-1.28-.17-.55-.1-1.11.16-1.58,1.8-3.24,4.11-5.99,6.45-8.56,2.45-2.64,4.89-5.19,7.39-7.67,6.21-4.75,12.31-9.66,18.52-14.5,18.46-14.91,39.51-26.2,60.48-37.17,0,0-1.61,2.62-1.61,2.62,0,0-.04-5.76-.04-5.76-.25-3.1,1.98-6.01,5.18-6.25,0,0,.36-.04.36-.04l.71-.09,11.44-1.4c53.55-6.55,107.62-8.79,161.54-6.84,17.45.66,34.72,1.63,52.13,3.33,5.58.98,10.97,2.8,16.07,5.28,7.13,3.68,14.66,7.86,21.6,11.9,26.66,15.53,52.28,32.66,77.51,50.42,0,0-1.47-.55-1.47-.55,45.35,4.8,90.22,13.62,133.97,26.51,3.08,1.29,5.73,3,7.22,6.03.24.53.38,1.26.32,2.03-.07,1-.9,1.76-1.89,1.75.02,0-9.92-.1-9.92-.1,0-.03-.08.05-.08.1,0,.02-.01.02.02.07,0,0,.86.93.86.93,0,0,3.53,3.81,3.53,3.81l7.05,7.64.44.48c1.83,2.2,5.02,2.35,7.61,1.66.75-.17,1.5.29,1.67,1.04.08.47.12.9.15,1.34.07,1.3.12,2.45-.22,3.81,0,0-.91-1.62-.91-1.62,2.03.8,3.85,1.48,5.28,3.39.6.95.75,2.13.88,3.2.3,4.84.21,10.08-3.14,14.02,0,0,.3-.71.3-.71-.54,6.94-2.12,13.89-5.45,20.03.06,1.04.47,2.2.62,3.31,0,0-.06-.18-.06-.18.26.56.27,1.08.25,1.54-.65,4.62-3.26,8.71-5.85,12.49-.53.64-1,1.4-1.95,1.8-.81.32-1.62.53-2.42.73-6.45,1.44-12.98,2.2-19.52,3,3.25-.5,6.49-1.05,9.72-1.64,3.23-.6,6.46-1.23,9.61-2.09.78-.23,1.55-.47,2.27-.78.61-.24,1.07-.94,1.54-1.58,2.19-3.33,4.17-7,5.11-10.88.14-.84.23-1.61-.06-2.13-.21-1.01-.44-1.93-.7-2.99-.23-.64.13-1.44.44-1.93,1.97-4.01,3.07-8.44,3.79-12.84.31-1.97.52-3.99.59-5.93,0-.26.11-.49.27-.66,1.03-1.11,1.62-2.77,1.97-4.47.56-3.1.67-6.51-.15-9.57-.28-.67-1.01-1.15-1.85-1.6-1.08-.77-3.51-.72-3.21-2.53.13-.55.15-1.23.13-1.92-.01-.66-.11-1.4-.21-2.04,0,0,1.74,1.14,1.74,1.14-3.96,1.16-8.2.5-10.96-2.75,0,0-7.27-7.43-7.27-7.43,0,0-3.63-3.72-3.63-3.72-.91-.92-1.87-1.84-1.91-3.23-.23-2.09,1.7-4.09,3.82-4,0,0,.65,0,.65,0,0,0,1.3-.01,1.3-.01l2.6-.03,5.2-.05s-1.93,1.75-1.93,1.75c-.75-1.72-3.29-3.19-5.01-3.84-2.73-.76-5.74-1.54-8.64-2.3-29.21-7.52-58.83-13.5-88.7-17.68-11.95-1.66-23.92-3.1-35.92-4.26-.55-.05-1.05-.25-1.47-.55-26.72-18.49-54.13-36.26-82.34-52.39-5.73-3.11-11.7-6.53-17.53-9.38-5.85-2.59-11.79-4.27-18.28-4.49-72.53-5.82-145.64-4.23-217.87,4.52,0,0-1.27.15-1.27.15.16-.03.27-.17.27-.33,0-.08,0,.14,0,.24,0,0,0,.36,0,.36,0,0-.04,5.76-.04,5.76,0,1.14-.66,2.14-1.61,2.62-13.85,7.06-27.92,14.2-41.09,22.39-13.2,8.33-25.3,18.33-37.94,27.55-3.19,3.42-10.16,9.47-13.01,14.66,0,0-2.33-2.85-2.33-2.85,2.73-.76,5.71-1.79,8.57-1.88,3.65.01,7.21.32,10.77.59,0,0,.59.05.59.05.08,0,.22.02.38.04,2.04.22,3.75,1.91,4.09,3.9.23,1.2-.06,2.54-.77,3.52-.2.29-.28.38-.42.55,0,0-.37.46-.37.46l-.73.92s-5.9,7.37-5.9,7.37c-3.83,4.61-7.4,9.45-11.63,13.72-1.88,1.64-4.84.59-6.75.18,0,0-.01,0-.01,0,.04,0,.09-.01.13-.03,0,0,.03-.02.03-.02,0,0,.01-.01.01-.01,0,0,.07-.04.07-.04.1-.05.19-.13.26-.22.09-.13.05-.06.07-.1,0-.01.02-.03.02-.05-.18.97-.28,2.27-.28,3.35-.07,3.1,0,6.24.1,9.36.02.56-.42,1.04-.99,1.06-10.94.5-7,13.42-3.93,19.97.42,7.86,3.28,15.67,8.55,21.63.07.08.07.2,0,.28-.57.69-1.06,1.48-1.33,2.34-.36,2.22-.03,4.64.6,6.8.13.3.23.69.52.87.12-.02.07-.2.05-.29h0Z"/>
    <path class="cls-1" d="m203.41,63.25c-6.44.75-13.39,1.39-18.97,4.84-1.86,1.27-3.73,2.45-5.56,3.68-11.92,8.21-26.24,18.42-29.05,33.35-2.22,11,3.63,13.59,13.06,16.3,10.66,1.25,21.48,1.23,32.24,1.79,74.28,2.38,172.1,6.26,246.38,8.27,0,0,.18,0,.18,0-.09,0-.35.1-.43.2,4.37-2.6-4.66-10.65-6.85-12.74-6.56-5.84-13.85-10.97-21.22-15.76,0,0,.89-.82.89-.82,2.06,4.69,3.99,9.42,5.41,14.35.39,1.62,1.01,3.37.59,5.03.32-1.67-.43-3.35-.9-4.93-1.72-4.78-3.97-9.36-6.23-13.9-.29-.55.38-1.15.89-.82,8.34,4.96,30.78,17.86,31.81,27.55.13,1.84-.92,3.78-2.47,4.74-.4.28-.94.4-1.39.42-18.27.65-42.02-.04-60.53-.14-53.27-.93-106.53-2.44-159.76-4.91-18.87-.99-37.75-1.68-56.64-3.56-1.23-.16-2.47-.28-3.7-.69-11.1-3.31-17.86-8.32-14.85-21.13,3.62-16.04,18.64-25.98,31.71-33.98,1.91-1.14,3.86-2.23,5.73-3.36,5.97-3.32,13.04-3.44,19.66-3.8h0Z"/>
    <path class="cls-1" d="m122.05,117.9c-.1,12.14-16.02,17.94-25.09,10.54-6.96-5.3-6.97-15.79,0-21.09,9.07-7.41,25-1.59,25.1,10.55h0Zm0,0c-.23-11.63-15.39-15.61-22.98-8.08-4.76,4.33-4.77,11.84,0,16.17,7.59,7.54,22.76,3.54,22.98-8.09h0Z"/>
  </g>
</svg>