<?xml version="1.0" encoding="UTF-8"?>
<svg id="Break" xmlns="http://www.w3.org/2000/svg" viewBox="0 0 1192.11 382.8">
  <defs>
    <style>
      .cls-1 {
        fill: #174191;
      }

      .cls-2 {
        fill: #ececec;
      }
    </style>
  </defs>
  <rect class="cls-2" x="26.63" y="25.15" width="634.81" height="316.87"/>
  <g>
    <path class="cls-1" d="m606.84,256.78c6.34-.65,12.71-1.42,18.89-2.85,2.21-.66,4.59-1,5.95-2.99,3.04-4.44,3.78-10.42,5.28-15.55,1.23-4.66,3.46-9.1,5.19-13.48,1.24-2.82,1.6-5.88,1.37-8.77-.27-3.01-2.49-4.34-5.3-4.84-.66-.13-1.12-.68-1.17-1.32,0,0-.38-4.03-.38-4.03,0,0,1.52,1.4,1.52,1.4l-5.2.08c-2.7.25-5.29-.81-6.97-2.97,0,0-.87-.97-.87-.97-.88-.92-4.23-4.75-5.21-5.8,0,0-3.47-3.87-3.47-3.87,0,0-.87-.97-.87-.97,0,0-.22-.24-.22-.24-.02-.02-.1-.11-.16-.2,0,0-.19-.26-.19-.26-1.81-2.56.36-6.14,3.4-5.95,0,0,.32,0,.32,0l1.3-.02,2.6-.04,5.2-.07-2.12,2.38c-.65-2.27-3.6-2.82-5.66-3.65-8.77-2.94-17.88-4.89-26.97-6.75-24.34-4.82-49.27-8.51-73.9-11.8-6.19-.85-12.38-1.63-18.58-2.4-4.77-.72-11.97-.9-16.07-3.44-27.98-16.38-55.97-32.73-84.73-47.61-5.52-2.82-11.32-5.73-17.04-7.87-.63-.31-2.48-.47-3.2-.61-10.74-1.17-21.59-1.54-32.41-1.99-78.23-2.22-156.93-2.72-234.93,4.32,0,0-.58.06-.58.06-.07,0-.25.02-.24.03.14.02.29-.02.41-.1,0,0-.09.06-.09.06-.07.04-.15.08-.23.12-6.27,4.64-11.49,10.72-16.99,16.43-8.45,9.11-16.72,18.5-24.83,27.95l-2.03-4.89s2.05.19,2.05.19c0,0,1.03.1,1.03.1,8.08.13,13.3,9.12,9.16,16.08,0,0-.38.63-.38.63,0,0-.31.42-.31.42-1.1,1.57-3.78,5.02-4.92,6.61-3.97,5.52-7.69,11.21-11.18,17.05,0,0-2.1,3.59-2.1,3.59-2.26,3.72-6.74,5.57-10.93,5.18,0,0-2.06-.02-2.06-.02,0,0,2.26-2.26,2.26-2.26,0,0-.15,13.09-.15,13.09,0,.74-.41,1.4-.98,1.78-2.32,1.61-4.95,3.44-5.78,6.1-.19,1.27.03,2.62.18,4.04.84,5.9,2.13,11.97,4.54,17.44,0,0,.37.78.37.78,0,0,.42.7.42.7,0,0,.21.35.21.35l.22.28c.16.19.25.36.5.59,1.49,1.58,2.99,2.7,3.9,4.9.72,3.26-2.25,6.3,1.32,8.64.21.14.47.33.61.37,1.65.62,3.36,1,5.1,1.41,19.36,4.2,39.01,7.48,58.54,10.95-19.73-2.59-39.42-5.06-59.03-8.61-2.25-.52-4.7-.71-6.7-1.95-1.63-1-2.92-2.78-3.08-4.72-.16-1.56.2-2.94.39-4.08.05-.42.16-.82.04-1.15-.56-1.18-2.29-2.47-3.29-3.55-.21-.18-.49-.53-.73-.81,0,0-.37-.44-.37-.44,0,0-.29-.44-.29-.44,0,0-.56-.89-.56-.89-.7-1.45-1.52-2.97-2.02-4.47-2.13-6.12-3.85-12.23-4.23-18.76.14-4.6,4.03-7.75,7.48-10.21,0,0-.98,1.78-.98,1.78,0,0-.15-13.09-.15-13.09-.01-1.23.97-2.24,2.21-2.26h.05s2.06-.02,2.06-.02c2.64.19,5.45-.73,6.8-3.09,4.62-8.46,9.73-16.8,15.37-24.62,0,0,2.38-3.37,2.38-3.37l.3-.42s.13-.26.13-.26c1.73-2.91-.49-7.06-3.87-7.25-.08-.02-.27-.03-.44-.05,0,0-.51-.04-.51-.04,0,0-1.03-.08-1.03-.08,0,0-2.05-.16-2.05-.16-2.33-.1-3.64-3.16-2.03-4.89,12.2-14.49,24.1-29,37.66-42.35,1.19-1.12,2.4-2.22,3.83-3.32.87-.56,1.28-1.1,3.19-1.76.49-.19,1.19-.23,1.7-.29,3.52-.36,7.03-.78,10.55-1.09,74.96-6.71,150.3-6.97,225.46-4.42,9.43.4,18.86.83,28.29,1.66,3.38.38,7,.48,10.23,1.74,6.3,2.41,11.82,5.25,17.47,8.14,28.8,15.09,56.63,31.88,84.49,48.53,1.35.76,2.83,1.27,4.36,1.52,0,0,9.2,1.32,9.2,1.32,9.06,1.23,18.81,2.77,27.88,4.12,21.63,3.42,43.38,7.04,64.76,11.87,10,2.33,20.09,4.63,29.69,8.47,2.56.95,5.04,2.73,5.87,5.48.04.13.08.28.12.42.04.17.06.26.11.56.16,1.15-.65,2.21-1.8,2.36-2.17.04-6.07-.07-8.12-.08,0,0-1.3-.02-1.3-.02,0,0-.32,0-.32,0-.09,0-.27,0-.22,0,0,0,.02-.01.04-.02.09-.08.06-.06.04-.14,0-.02-.02-.04-.02-.03,0,0-.01,0,.04.05,0,0,.21.25.21.25l.84.99s3.36,3.97,3.36,3.97c0,0,3.36,3.97,3.36,3.97,0,0,1.68,1.98,1.68,1.98,0,0,.84.99.84.99,0,0,.42.5.42.5.5.6,1.14,1.04,1.89,1.28.72.24,1.27.2,2.1.21,0,0,5.2.08,5.2.08.8-.01,1.47.62,1.52,1.4,0,0,.26,4.04.26,4.04,0,0-1.17-1.32-1.17-1.32,1.68.38,3.47.98,4.95,2.32,1.52,1.29,2.29,3.36,2.39,5.12.26,3.49-.52,6.88-1.87,9.9-1.3,2.99-2.76,5.8-3.98,8.7-2.58,5.81-3.33,12.41-6.33,18.09-.85,1.47-1.77,2.93-3.35,3.77-1.55.74-3.13,1.06-4.7,1.41-6.32,1.18-12.69,1.67-19.07,2.04h0Z"/>
    <path class="cls-1" d="m448.03,149.5l-3.68-10.53c-.18-.39.36-.78.68-.53,8.72,5.82,17.56,11.8,26.22,17.73,0,0,2.61,1.78,2.61,1.78,0,0,.65.45.65.45.09.06.24.18.39.29,0,0,.42.35.42.35,3,2.75,1.68,8.25-2.31,9.28-.64.21-1.43.24-2.1.24-2.46.02-26.9,0-30.02,0-74.91-.34-152.61-1.79-227.42-4.93,0,0-6.33-.3-6.33-.3-2.12-.14-4.8-.1-6.86-.8-8.74-2.42-12.75-9.66-7.47-17.82,6.15-8.98,14.74-15.67,23.12-22.36,6.72-5.17,13.74-9.97,21.22-13.98,3.75-1.91,7.66-3.81,11.85-4.44-14.18,3.8-39.42,26.63-49.01,38.12-2.84,3.6-7.58,9.48-3.01,13.35,2.4,1.9,5.67,2.68,8.8,2.58,3.57.07,53.37.71,58.39.78,57.4.92,119.49,2.48,176.84,4.75,0,0,25.26,1.08,25.26,1.08l3.16.14,1.58.07.39.02s.23,0,.23,0c1.29.06,2.28-1.51,1.84-2.7-.15-.68-.93-1.18-1.46-1.59-9.16-7.02-18.41-14.19-27.48-21.31,0,0,.72-.51.72-.51,0,0,2.79,10.8,2.79,10.8h0Z"/>
  </g>
  <path class="cls-1" d="m109.47,109.8c28.15-.98,59.13-1.52,87.43-1.87,1.16.04,2.79-.16,3.95.14,4.81,1.11,5.74,7.81,1.48,10.27-6.8,4.62-26.31,17.59-33.45,22.33-3.87,2.59-7.78,5.15-11.68,7.7-3.89,2.61-8.13,5.38-12.67,6.94-4.61,1.66-9.48,2.62-14.36,2.7-2.2.06-4.9-.11-7.06-.11-11.66-.25-23.31-.63-34.97-1.3-.32-.02-.56-.29-.54-.61.02-.3.25-.53.54-.54,9.33-.54,18.65-.89,27.98-1.13,16.49-.32,24.47.39,38.59-9.72,12.84-8.48,32.47-21.23,45.43-29.57,1.13-.57,1.4-1.97.48-2.87-.52-.53-1.25-.46-1.97-.47-1.06,0-4.14-.05-5.25-.05-27.14-.36-56.96-.9-83.93-1.83h0Z"/>
  <path class="cls-1" d="m174.1,175.62c-.1,12.14-16.02,17.94-25.09,10.54-6.96-5.3-6.97-15.79,0-21.09,9.07-7.41,25-1.59,25.1,10.55h0Zm0,0c-.23-11.63-15.39-15.61-22.98-8.08-4.76,4.33-4.77,11.84,0,16.17,7.59,7.54,22.76,3.54,22.98-8.09h0Z"/>
</svg>