<?xml version="1.0" encoding="UTF-8"?>
<svg id="Sedan" xmlns="http://www.w3.org/2000/svg" viewBox="0 0 1192.11 382.8">
  <defs>
    <style>
      .cls-1 {
        fill: #174191;
      }

      .cls-2 {
        fill: #ececec;
      }
    </style>
  </defs>
  <rect class="cls-2" x="26.63" y="25.15" width="634.81" height="316.87"/>
  <g>
    <path class="cls-1" d="m605.45,259.27c5.71-.97,11.38-2.13,16.96-3.63,2.78-.76,5.55-1.6,8.18-2.71,1.3-.56,2.6-1.19,3.65-2.02.52-.4.99-.89,1.12-1.37-.05-4.15-1.56-8.99.38-13.03,3.57-6.81,9.21-13.16,11.13-20.6.39-2.52-.87-5.01-2.45-6.92-1.07-1.18-2.2-2.29-3.63-2.75-.67-.19-1.08-.65-1.38-1.2-.34-.54-.95-.76-1.61-.66-2.81.36-5.08.92-8.05.41-.92-.16-1.92-.67-2.6-1.39,0,0-1.59-1.49-1.59-1.49-1.79-1.64-7.61-7.14-9.54-8.92-.96-.97-1.85-1.52-2.63-2.71-1.53-2.35.26-5.41,2.57-6.17,3.43-.96,7.1-.81,10.46-.8,2.29.09,4.57.15,6.88.54,0,0,2.12.47,2.12.47,0,0-2.29,3.16-2.29,3.16-1.8-2.53-4.36-4.57-7.37-5.41-41.12-11.64-83.51-18.17-125.85-23.53-23.34-12.79-46.16-26.91-69.48-39.84-11.3-6.32-22.59-13.05-34.24-18.66-.52-.25-.69-.29-1.02-.42-.94-.12-1.72-.3-2.75-.4-10.72-1.34-23.23-1.96-34.08-2.53-52.28-2.21-104.79-.21-156.79,5.76,0,0,.7-.16.7-.16-6.8,2.29-13.58,5.55-20.23,8.92-13.36,6.8-26.39,14.38-39.23,22.15-6.43,3.91-12.87,7.84-19.19,11.88l.39-.3c-3.2,2.63-6.4,4.61-10.6,5.38-17.34.9-34.91,1.72-52.18,3.26,0,0-.55.07-.55.07,0,0-.27.03-.27.03,0,0-.14.02-.14.02,0,0-.07,0-.07,0,0,0,.04,0,.04,0,.06,0,.14-.04.18-.07-2.45,3.74-3.4,10.22-4.16,15.05,0,0-2.65-2.66-2.65-2.66,3.86-.18,17.98-2.1,18.2,4.03-.01,3.02-1,5.91-1.78,8.67-1.24,4.03-2.65,7.95-4.44,11.85-.71,1.6-1.5,3.1-2.75,4.53-.48.47-1,.83-1.69.97-2.53.32-4.93.19-7.37.07,0,0,1.95-1.99,1.95-1.99,0,0,.6,9.36.6,9.36.07.76-.39,1.45-1.05,1.72-2.07.89-4.28,1.83-6.02,3.24-.08.08-.19.17-.21.21-.02.03-.04.05-.07.07.01,0,.03-.03.03-.05,0,2.43.22,5.2.6,7.69.77,5.24,1.67,11.26,4.22,15.79,0,0-.31-.31-.31-.31,2.07,1.69,7.01,4.87,5.25,8.13-.5.9-1.09,1.4-1.51,1.92-.44.51-.68.93-.7,1.31,1.25,8.67,44,13.5,52.74,14.95-12.16-1.46-47.1-3.85-53.87-12.35-.5-.7-.97-1.56-.98-2.66.02-1.11.63-2.02,1.12-2.63.55-.79,1.32-1.3,1.3-2.02-.84-1.89-3.12-3.34-4.79-4.58-1.16-1.28-1.75-2.98-2.34-4.43-1.93-5.5-2.96-11.22-3.68-16.98-.14-1.77-.5-3.09-.05-4.96.07-.18.16-.37.25-.54,0,0,.26-.35.26-.35,2.01-2.24,4.81-3.36,7.44-4.64,0,0-1.05,1.72-1.05,1.72,0,0-.86-9.35-.86-9.35-.1-1.08.78-2.03,1.87-2,1.99.07,4.09.07,5.97-.11.21-.02.5-.06.62-.08-.23,0-.48.19-.44.15-.01,0-.03.02-.03.03,0,0,.04-.06.04-.06,2.89-4.39,4.29-9.8,5.88-14.84.51-2.31,1.47-5.11,1.45-7.12.07.22.13.33.25.47.07.04-.23-.12-.56-.2-4.09-.84-8.74-.3-12.94.11-1.5.2-2.86-1.15-2.65-2.66.76-5.44,1.38-10.7,3.72-15.84.7-1.57,2.12-3.3,4.02-3.68,0,0,.09-.01.09-.01,0,0,.18-.03.18-.03l.37-.06c.41-.06,1-.15,1.39-.18,13.79-1.41,27.39-2.38,41.18-3.34,0,0,5.17-.32,5.17-.32,1.15-.07,2.75-.12,3.88-.17,2.29-.13,4.68-1.41,6.64-2.78,13.08-9.34,26.98-17.38,40.77-25.6,13.39-7.62,26.43-15.24,41.1-20.57,39.44-5.16,79.35-7.18,119.12-7.33,16.37,0,33.09.5,49.47,1.48,9.03.74,19.21,1.15,28.13,2.66,3.99,1.18,7.85,3.66,11.49,5.48,8.7,4.72,17.29,9.61,25.85,14.54,20.89,12.32,50.6,29.14,66.69,39.66,40.42,5.57,80.8,12.46,120.03,23.86,0,0,4.2,1.27,4.2,1.27,0,0,2.11.65,2.11.65.69.21,1.64.57,2.32.92,3.02,1.49,5.53,3.74,7.36,6.57.61.99.31,2.29-.68,2.9-.5.31-1.08.38-1.61.26l-2.11-.51c-4.61-.64-9.82-.93-14.35-.36,0,0-.47.08-.47.08-.23.05-.47.13-.63.27-.21.16-.29.35-.29.39,0,.03,0,.05.02.11,3.79,3.85,4.83,4.79,8.07,8.02,0,0,3.08,3.04,3.08,3.04,0,0,1.54,1.52,1.54,1.52,0,0,.38.38.38.38,1.28.7,2.9.48,4.56.4.69-.06,1.38-.14,2.1-.23,0,0,1.13-.13,1.13-.13,1.7-.3,3.9.87,4.5,2.35-.06-.1-.2-.22-.37-.26,4.06,1.59,7.17,5.9,7.77,10.28.38,3.99-2.06,7.68-3.85,10.79-2.68,4.65-6.28,8.76-8.66,13.53-1.05,3.3-.4,6.92-.19,10.5,1.36,6.67-26.23,9.87-31.23,10.66h0Z"/>
    <path class="cls-1" d="m446.7,151.14c.15-2.62-.65-5.18-1.51-7.62-.9-2.44-2.01-4.82-3.21-7.1-.32-.5.4-1.09.83-.74,9.54,6.31,19.51,12.23,28.04,19.95,0,0,1.16,1.08,1.16,1.08.33.3.91.87,1.27,1.45,2.55,3.81-.55,9.45-5.15,9.36,0,0-3.17,0-3.17,0-45.91-.11-103.11-1.17-149.28-2.25-34.41-1.21-78.19-1.61-112.18-3.93-8.11-.93-23.94-4.43-17.67-15.96,6.15-11.38,16.35-19.48,25.99-27.55,3.24-2.62,6.56-5.14,9.92-7.59,3.37-2.45,6.76-4.87,10.25-7.17,3.63-1.42,7.44-3,11.41-2.95-3.84.16-7.83,2.25-10.93,3.68-6.57,5.04-12.93,10.36-19.11,15.85-6.15,5.5-12.09,11.27-17.3,17.52-2.98,3.73-5.82,7.47-7.24,11.86-.73,2.58,1.31,3.82,3.8,4.95,3.42,1.41,7.45,2.04,11.43,2.45,20.58.98,41.31.6,61.93,1.17,44.35.82,104.99,2.48,149.31,4.13,17.6.67,35.21,1.37,52.8,2.19,2.02.13,3.45-2.33,2.43-4.06-.23-.47-1.13-1.29-1.8-2.01-8.04-8-17.54-14.33-26.56-21.2,0,0,.83-.74.83-.74,2.03,4.8,4.16,9.95,3.7,15.24h0Z"/>
  </g>
  <path class="cls-1" d="m174.1,147.93c-.1,12.14-16.02,17.94-25.09,10.54-6.96-5.3-6.97-15.79,0-21.09,9.07-7.41,25-1.59,25.1,10.55h0Zm0,0c-.23-11.63-15.39-15.61-22.98-8.08-4.76,4.33-4.77,11.84,0,16.17,7.59,7.54,22.76,3.54,22.98-8.09h0Z"/>
</svg>