<?xml version="1.0" encoding="UTF-8"?>
<svg id="Cabriolet" xmlns="http://www.w3.org/2000/svg" viewBox="0 0 1192.11 382.8">
  <defs>
    <style>
      .cls-1 {
        fill: #174191;
      }
    </style>
  </defs>
  <path class="cls-1" d="m588.71,258.42c14.29-.89,28.63-1.74,42.79-3.74,2-.34,4.02-.61,5.86-1.39.2-.12.31-.22.48-.42,1.47-1.59,2.17-3.93,2.01-6,0,0,.36.59.36.59,0,0-8.27-5.28-8.27-5.28-.32-.21-.47-.58-.41-.93,0,0,2.36-15.26,2.36-15.26.07-.51.5-.87.98-.92,3.24-.5,6.75-2.33,6.87-5.89,0,0,.12-.88.12-.88.3-2.71.94-5.82.5-8.34-.36-2.02-1.24-2.99-3.32-2.94-.71,0-1.3-.49-1.45-1.16,0,0-.63-2.98-.63-2.98,0,0,1.53,1.19,1.53,1.19-8.29.46-16.51,1.14-24.85.65-.59-.09-1.08-.1-1.63-.27-1.65-.38-2.89-1.75-4.06-2.74-3.39-3.16-6.51-6.57-9.56-10.03,0,0-1.81-2.1-1.81-2.1-.43-.54-.67-.7-1.08-1.48-1.19-2.21.44-5.13,2.89-5.41.56-.06.7-.04.94-.04l2.75-.03c10.28-.29,21.09.61,30.27,5.74.43.24.86.5,1.29.77l.64.43c.23.16.4.29.71.54l-3.58,2.74c-1.79-3.27-4.27-6.39-7.29-8.63,0,0,.74.38.74.38-47.8-14.34-97.1-23.69-146.8-28.09-23.18-13.17-67.35-41.63-90.22-55.49,0,0,2.25.49,2.25.49,0,0-21.5,2.71-21.5,2.71,0,0,2.79-4.73,2.79-4.73,0,0,23.93,59.41,23.93,59.41.97,2.27-.86,4.9-3.31,4.82,0,0-74.65-1.29-74.65-1.29-1.44-.02-2.65-.93-3.14-2.19-1.23-2.99-2.51-6.43-4.52-8.92.22.12.48.4,1.57.33-4.37-.1-9.12.88-13.4,2.32-1.95.48-3.89,1.83-5.77,1.85-25.42-1.91-76.76-5.41-101.72-7.62-9.14-1.87-18.42-1.27-27.63.26-5.54.8-17.28,2.58-22.78,3.38-20.14,3.24-40.82,3.87-60.86,7.46-5.77,1-11.47,2.32-17.12,3.84,0,0-.23.06-.23.06,0,0-.16.04-.09.03.06-.04,0,0-.1.07-.2.17-.49.56-.74,1-.26.44-.5.95-.72,1.48-.88,2.13-1.52,4.6-1.98,6.95l-3.46-1.73c.57-.58,1.06-.97,1.71-1.39,1.31-.92,3.61-1.37,5.07-.05,2.43,1.49,5.04,2.7,7.56,4.2,2.52,1.57,5.51,3.11,7.35,5.83.43.61.64,1.6.66,2.41.58,3.92,1.04,9.32-4.02,10.61-7.09,1.08-13.95.16-21-.17,0,0,1.55-1.21,1.55-1.21-.71,4.33-1.23,9.24-.2,13.48.21.7-.2,1.45-.91,1.64-1.66.18-3.44.34-5.01.8-.72.19-1.49.52-1.76.8-.02.03-.06.05-.08.07.01.01.01,0,0,0-.03.02-.02.2-.05.29.45,10.28,4.27,20.65,9.92,29.22,1.18,1.22,1.74,3.93.86,5.76-.21.62-.61,1.22-.73,1.59-.29.88-.03,1.92.65,2.57.83.72,1.97,1.03,2.96,1.47,13.4,4.96,27.57,7.69,41.73,9.54-14.26-1.43-28.58-3.62-42.19-8.32-1.19-.46-2.47-.84-3.44-1.67-1.08-.98-1.53-2.59-1.1-4,.09-.33.3-.74.4-.94.89-1.64.87-3.66-.46-5.04-4.05-5.64-6.92-12.03-8.89-18.66-1.07-3.76-2.04-7.64-2.09-11.67.01-1.98,2.13-3,3.57-3.4,1.79-.53,3.49-.8,5.29-.98,0,0-1.16,1.68-1.16,1.68-1.07-3.77-.89-7.36-.63-11.1.11-1.22.23-2.4.43-3.64.12-.76.8-1.28,1.55-1.21,6.5.18,13.47.81,19.87-.19.82-.25,1.21-.6,1.47-1.14.57-1.76.04-4.23-.16-6.29,0-.06-.01-.24-.03-.18,0,0-.04-.09-.11-.2-.16-.25-.47-.59-.81-.9-3.73-3.28-9.51-5.4-13.47-7.95.07.07.19.05.18.06.01-.01-.3.08-.61.3-.31.2-.71.54-.94.79-.76.81-2.04.84-2.85.08-.51-.48-.71-1.18-.6-1.83.49-2.67,1.09-5.2,2.1-7.82.81-1.94,1.77-4.08,3.99-4.99,25.64-7.9,52.68-8.27,78.91-12.72,5.46-.85,17.55-2.85,22.72-3.65,7.74-1.36,15.71-2.19,23.65-1.42,2.45.16,5.1.88,7.57,1,4.33.34,33.12,2.33,38.23,2.66,0,0,61.25,3.99,61.25,3.99l-1.61.29c6.73-2.86,15.65-5.24,21.34-4.28,1.64.51,2.89,2.05,3.74,3.32,1.96,3.04,3.25,6.09,4.57,9.41,0,0-3.14-2.21-3.14-2.21,0,0,74.65,1.1,74.65,1.1l-3.31,4.82s-23.85-59.44-23.85-59.44c-.72-1.78.14-3.8,1.92-4.51.28-.11.58-.19.86-.22,0,0,21.5-2.66,21.5-2.66.81-.1,1.6.09,2.25.49,22.06,13.8,66.55,41.57,88.55,55.46,0,0-1.4-.47-1.4-.47,12.52,1.2,25.02,2.7,37.46,4.54,37.32,5.49,74.18,14.03,110.17,25.3,3.17,1.82,5.5,4.92,7.56,7.88,1.18,1.85,3.3,4.55.69,6.06-.86.43-1.87.27-2.55-.34-.05-.04-.24-.19-.38-.29,0,0-.48-.34-.48-.34-5.44-3.44-11.92-5.16-18.28-5.91-4.31-.34-9.06-.37-13.48-.4-.67,0-.35,0-.35-.03.05-.04.07-.06.06-.09.02-.02,0-.09-.02-.13,2.83,3.61,6.29,7.41,9.5,10.79,1.23,1.19,2.45,2.54,3.77,3.5.17.14.26.17.35.23.08.08.22.05.32.1.06.01.09.04.18.05,0,0,.29.04.29.04,1.01.16,2.11.23,3.18.28,7.16.27,14.51,0,21.7-.28.74-.05,1.4.47,1.53,1.19,0,0,.56,2.99.56,2.99,0,0-1.45-1.16-1.45-1.16,8.31.06,6.14,10.01,5.23,15.4-.42,4.63-4.82,7.31-9.11,7.75,0,0,.98-.92.98-.92l-2.72,15.2s-.41-.93-.41-.93c.01.02,8.17,5.48,8.19,5.5.2.13.31.34.32.56.18,2.68-.77,5.24-2.56,7.18-.47.54-1.17.89-1.84,1.07-1.76.53-3.59.78-5.39,1.03-14.27,1.7-28.64,2-42.98,2.46h0Z"/>
  <path class="cls-1" d="m308.92,146.14c4.39-2.64,6.38-7.46,5.51-12.31-.78-4.74-2.44-10.62-8.14-10.24-11.03.55-17.71,11.12-14.39,21.55-5.24-7.32-2.29-18.67,5.6-22.99,4.07-2.22,9.07-3.65,13.56-1.64,4.91,2.3,6.21,8.35,6.37,13.03.4,5.61-2.96,11.3-8.51,12.6h0Z"/>
  <path class="cls-1" d="m212.85,145.14c1.71-1.31,3.62-3.08,3.99-5.18.2-2.8-1.07-6.44-3.11-8.41-.68-.59-1.33-.93-2.14-1.01-2.14-.26-4.44-.23-6.63-.04-5.58.5-11.14,2.04-15.98,4.93-3.79,2.22-4.33,4.14-.06,6.38-1.79-.19-4.31-1.05-4.56-3.27-.22-2.49,2.07-4.38,3.78-5.86,4.72-3.65,10.57-5.69,16.48-6.2,3.79-.16,8.85-.61,11.63,2.57,2.66,3.16,3.59,7.57,2.47,11.48-1.11,2.51-3.45,3.86-5.87,4.6h0Z"/>
  <path class="cls-1" d="m430.6,160.03c-.43-5.6-.68-11.82-.9-17.46-.07-1.94-.15-3.88-.19-5.82-.01-.6.46-1.1,1.06-1.11.27,0,.51.09.71.24,2.75,2.05,5.44,4.14,8.05,6.36,5.21,4.63,10.85,9.04,14.15,15.38,2.57,5.54-4.21,6.38-7.96,6.94-13.73,1.32-27.3.23-40.89-1.41,4.49-.21,48.64.46,46.27-3.88-1.23-2.99-3.8-5.64-6.06-8.05-4.66-4.79-9.76-9.27-14.91-13.6l1.77-.87c-.23,7.65-.55,15.65-1.1,23.28h0Z"/>
</svg>